<svg width="189" height="58" viewBox="0 0 189 58" fill="none" xmlns="http://www.w3.org/2000/svg">
<g clip-path="url(#clip0_2065_6179)">
<path d="M187.776 0.324219H1.22409V57.2046H187.776V0.324219Z" fill="#ED1B2F"/>
<path d="M24.8153 45.6155H9.29697V44.5045L9.8938 44.4174C10.8174 44.2911 11.1833 43.9034 11.1833 42.5354V17.0533C11.1833 15.6853 10.8174 15.3019 9.8938 15.1712L9.29697 15.0841V13.9731H18.8772V15.0841L18.276 15.1712C17.2173 15.3411 16.5246 15.6853 16.5246 17.0533V43.5591C16.5246 44.156 16.664 44.5002 17.3088 44.5002C19.9315 44.5002 23.064 40.6097 23.8961 35.9481L25.0462 35.9917L24.8153 45.6111V45.6155Z" fill="white"/>
<path d="M37.0924 45.615V44.5042L37.5542 44.3734C38.5693 44.0728 38.9353 43.4324 38.6128 42.108L37.2318 36.6796H30.9234L29.7253 41.8945C29.4508 43.0926 29.5858 44.2471 31.1063 44.417L31.7991 44.5042V45.615H25.3991V44.5042L26.0439 44.3342C27.1026 44.0336 27.7953 43.2233 28.1177 41.8988L34.6091 13.9814H36.7264L44.002 42.7528C44.2329 43.7373 44.6947 44.2515 45.5704 44.4214L45.9843 44.5085V45.6194H37.0968L37.0924 45.615ZM33.96 23.7273L31.2893 35.1417H36.8615L33.96 23.7273Z" fill="white"/>
<path d="M66.0077 41.4679C64.1649 44.1604 61.5858 45.6155 57.3946 45.6155H49.2434V44.5045L49.8446 44.4174C50.7638 44.2911 51.3651 43.9034 51.3651 42.5354V17.0533C51.3651 15.6853 50.7638 15.3019 49.8446 15.1712L49.2434 15.0841V13.9731H57.3467C60.9366 13.9731 63.1019 15.2148 64.9447 17.0925C67.938 20.1291 68.9964 25.1306 68.9964 30.6461C68.9964 34.4059 68.1207 38.3834 66.0032 41.4636M58.2224 15.0884C57.3946 15.0884 56.7019 15.559 56.7019 16.3693V43.0494C56.7019 44.1604 57.2073 44.5438 58.5448 44.5438C59.6514 44.5438 60.7536 44.2039 61.6293 43.3457C63.1019 41.8949 63.4722 38.3006 63.4722 30.6504C63.4722 18.2949 62.4571 15.0884 58.2224 15.0884Z" fill="white"/>
<path d="M85.9218 45.6151H68.4209V44.5041L69.0182 44.417C69.9373 44.2906 70.3072 43.9029 70.3072 42.5349V17.0528C70.3072 15.6849 69.9373 15.3014 69.0182 15.1708L68.4209 15.0837V13.9727H85.9218L86.1524 22.7383L84.9107 22.7818C83.6217 18.3773 82.1487 15.088 77.3566 15.088C76.3895 15.088 75.653 15.5149 75.653 16.8829V28.7679H76.1149C77.6352 28.7679 79.478 27.2735 79.936 25.1344L80.3499 23.2088H81.6868V36.1611H80.3499L79.7527 33.6822C79.1995 31.3296 77.7271 29.8788 76.1149 29.8788H75.653V42.7919C75.653 43.99 76.4809 44.4997 77.6792 44.4997C81.0857 44.4997 83.2991 41.9336 84.3575 38.7707L85.1853 36.2918L86.475 36.3789L85.9218 45.6151ZM78.2324 11.1147L74.4113 12.8661L73.9061 12.1821L78.2363 8.24805L80.3233 10.1476" fill="white"/>
<path d="M101.462 29.4959C99.8977 30.3063 98.0069 30.6939 95.3842 30.6939H94.4171V42.5354C94.4171 43.9034 95.0622 44.2475 96.1206 44.4174L96.7172 44.5045V45.6155H87.1849V44.5045L87.7861 44.4174C88.7097 44.2911 89.0757 43.9034 89.0757 42.5354V17.0533C89.0757 15.6853 88.7097 15.3019 87.7861 15.1712L87.1849 15.0841V13.9731H96.6259C102.246 13.9731 105.792 17.2668 105.792 22.2246C105.792 25.6882 104.224 28.0844 101.462 29.4915M98.8347 16.1559C98.1902 15.3455 97.0398 15.0884 95.8421 15.0884C95.2404 15.0884 94.4125 15.2148 94.4125 15.816V29.583H95.3803C97.4537 29.583 98.2815 28.9426 99.018 28.0451C100.168 26.6336 100.216 24.1982 100.216 22.229C100.216 19.7065 99.9372 17.4411 98.8347 16.1559Z" fill="white"/>
<path d="M122.622 45.6151H105.122V44.5041L105.723 44.417C106.642 44.2906 107.013 43.9029 107.013 42.5349V17.0528C107.013 15.6849 106.642 15.3014 105.723 15.1708L105.122 15.0837V13.9727H122.622L122.854 22.7383L121.612 22.7818C120.322 18.3773 118.85 15.088 114.057 15.088C113.09 15.088 112.354 15.5149 112.354 16.8829V28.7679H112.815C114.336 28.7679 116.179 27.2735 116.636 25.1344L117.05 23.2088H118.388V36.1611H117.05L116.449 33.6822C115.896 31.3296 114.423 29.8788 112.812 29.8788H112.35V42.7919C112.35 43.99 113.178 44.5041 114.375 44.5041C117.782 44.5041 119.996 41.938 121.054 38.7751L121.882 36.2962L123.172 36.3833L122.618 45.6194L122.622 45.6151ZM118.749 12.8661L114.928 11.1147L111.108 12.8661L110.603 12.1821L114.933 8.24805L119.259 12.1821L118.754 12.8661H118.749Z" fill="white"/>
<path d="M136.246 45.2319C135.235 45.7895 134.264 46.003 133.161 46.003C131.044 46.003 128.787 44.8921 127.267 43.0971C125.332 40.7881 123.49 36.4707 123.49 29.8006C123.49 20.7388 126.805 16.0772 129.567 14.4521C130.717 13.7682 131.776 13.5547 132.651 13.5547C133.527 13.5547 134.446 13.6418 135.645 14.3258C135.919 14.4957 136.472 14.6656 136.794 14.6656C137.16 14.6656 137.67 14.365 138.359 13.5547H139.374L139.744 23.1742L138.407 23.3005L136.52 18.4298C135.6 16.0336 134.86 14.5829 133.157 14.5829C132.237 14.5829 131.362 15.1405 130.808 16.4214C129.841 18.6869 129.336 23.0042 129.336 29.8006C129.336 36.597 130.024 40.9188 131.179 43.1843C131.732 44.2516 132.883 44.7657 133.802 44.7657C135.966 44.7657 139.143 42.8401 138.912 36.4271H140.018C140.062 41.7292 138.546 43.951 136.241 45.2362" fill="white"/>
<path d="M151.332 45.6155V44.5045L151.929 44.4174C152.848 44.2911 153.219 43.9034 153.219 42.5354V30.0928H147.416V42.5354C147.416 43.9034 147.786 44.2867 148.705 44.4174L149.306 44.5045V45.6155H140.188V44.5045L140.789 44.4174C141.708 44.2911 142.079 43.9034 142.079 42.5354V17.0533C142.079 15.6853 141.708 15.3019 140.789 15.1712L140.188 15.0841V13.9731H149.306V15.0841L148.705 15.1712C147.786 15.2976 147.416 15.6853 147.416 17.0533V28.385H153.219V17.0533C153.219 15.6853 152.853 15.3019 151.929 15.1712L151.332 15.0841V13.9731H160.451V15.0841L159.854 15.1712C158.935 15.2976 158.564 15.6853 158.564 17.0533V42.5354C158.564 43.9034 158.935 44.2867 159.854 44.4174L160.451 44.5045V45.6155H151.332Z" fill="white"/>
<path d="M178.766 45.6155H161.265V44.5045L161.862 44.4174C162.782 44.2911 163.152 43.9034 163.152 42.5354V17.0533C163.152 15.6853 162.782 15.3019 161.862 15.1712L161.265 15.0841V13.9731H178.766L178.997 22.7387L177.756 22.7823C176.466 18.3777 174.993 15.0884 170.201 15.0884C169.234 15.0884 168.497 15.5154 168.497 16.8834V28.7683H168.959C170.479 28.7683 172.322 27.274 172.784 25.1349L173.198 23.2093H174.536V36.1616H173.198L172.602 33.6826C172.048 31.33 170.575 29.8793 168.964 29.8793H168.502V42.7924C168.502 43.9905 169.33 44.5045 170.527 44.5045C173.939 44.5045 176.148 41.9385 177.206 38.7756L178.034 36.2966L179.324 36.3838L178.771 45.6198L178.766 45.6155Z" fill="white"/>
</g>
<defs>
<clipPath id="clip0_2065_6179">
<rect width="187.199" height="57.6496" fill="white" transform="translate(0.900299)"/>
</clipPath>
</defs>
</svg>
