<svg width="20" height="20" viewBox="0 0 20 20" fill="none" xmlns="http://www.w3.org/2000/svg">
<rect width="20" height="20" rx="1.66667" fill="#ED1B2F"/>
<g clip-path="url(#clip0_3004_2826)">
<path d="M10.0001 12.9532C10.6494 12.9532 11.1806 12.422 11.1806 11.7727C11.1806 11.1234 10.6494 10.5921 10.0001 10.5921C9.35075 10.5921 8.8195 11.1234 8.8195 11.7727C8.8195 12.422 9.35075 12.9532 10.0001 12.9532ZM13.5417 7.64073H12.9514V6.46018C12.9514 4.83101 11.6292 3.50879 10.0001 3.50879C8.37089 3.50879 7.04867 4.83101 7.04867 6.46018V7.64073H6.45839C5.80908 7.64073 5.27783 8.17198 5.27783 8.82129V14.7241C5.27783 15.3734 5.80908 15.9046 6.45839 15.9046H13.5417C14.191 15.9046 14.7223 15.3734 14.7223 14.7241V8.82129C14.7223 8.17198 14.191 7.64073 13.5417 7.64073ZM8.17019 6.46018C8.17019 5.4508 8.99068 4.63032 10.0001 4.63032C11.0094 4.63032 11.8299 5.4508 11.8299 6.46018V7.64073H8.17019V6.46018ZM13.5417 14.7241H6.45839V8.82129H13.5417V14.7241Z" fill="white"/>
</g>
<defs>
<clipPath id="clip0_3004_2826">
<rect width="14.1667" height="14.1667" fill="white" transform="translate(2.9165 2.91699)"/>
</clipPath>
</defs>
</svg>
