<svg width="26" height="31" viewBox="0 0 26 31" fill="none" xmlns="http://www.w3.org/2000/svg">
<g clip-path="url(#clip0_2065_6053)">
<path d="M8.52824 8.20109C8.52824 5.78483 10.4869 3.82609 12.9032 3.82609C15.3195 3.82609 17.2782 5.78483 17.2782 8.20109V11.1177H20.1949V8.20109C20.1949 4.17403 16.9303 0.909424 12.9032 0.909424C8.87618 0.909424 5.61157 4.17403 5.61157 8.20109V11.1177H8.52824V8.20109ZM12.9032 24.2427C12.098 24.2429 11.4451 23.5904 11.4449 22.7852C11.4449 22.7849 11.4449 22.7854 11.4449 22.7852V18.4094C11.4449 17.604 12.0978 16.9511 12.9032 16.9511C13.7086 16.9511 14.3615 17.604 14.3615 18.4094V22.7844C14.3617 23.5896 13.7084 24.2425 12.9032 24.2427C12.9034 24.2427 12.9029 24.2427 12.9032 24.2427Z" fill="#FDE8EA"/>
<path d="M20.1949 11.1174H5.61157C3.19532 11.1174 1.23657 13.0761 1.23657 15.4924V25.7007C1.23657 28.117 3.19532 30.0757 5.61157 30.0757H20.1949C22.6111 30.0757 24.5699 28.117 24.5699 25.7007V15.4924C24.5699 13.0761 22.6111 11.1174 20.1949 11.1174ZM14.3615 22.7841C14.3617 23.5892 13.7092 24.2422 12.904 24.2424C12.9037 24.2424 12.9043 24.2424 12.904 24.2424C12.0988 24.2426 11.445 23.59 11.4449 22.7849C11.4449 22.7846 11.4449 22.7851 11.4449 22.7849V18.4091C11.4449 17.6036 12.0977 16.9507 12.9032 16.9507C13.7086 16.9507 14.3615 17.6036 14.3615 18.4091V22.7841Z" fill="#ED1B2F"/>
</g>
<defs>
<clipPath id="clip0_2065_6053">
<rect width="25" height="31" fill="white" transform="translate(0.404541 -0.00756836)"/>
</clipPath>
</defs>
</svg>
