<svg width="122" height="38" viewBox="0 0 122 38" fill="none" xmlns="http://www.w3.org/2000/svg">
<g clip-path="url(#clip0_817_21288)">
<path d="M121.789 0.211426H0.210938V37.281H121.789V0.211426Z" fill="#ED1B2F"/>
<path d="M15.5862 29.7281H5.47266V29.0041L5.86162 28.9473C6.46356 28.865 6.70203 28.6123 6.70203 27.7208V11.1138C6.70203 10.2223 6.46356 9.97243 5.86162 9.88725L5.47266 9.83047V9.10645H11.7162V9.83047L11.3244 9.88725C10.6344 9.99797 10.183 10.2223 10.183 11.1138V28.388C10.183 28.777 10.2738 29.0013 10.694 29.0013C12.4033 29.0013 14.4448 26.4658 14.9871 23.4278L15.7366 23.4562L15.5862 29.7253V29.7281Z" fill="white"/>
<path d="M23.5864 29.7283V29.0043L23.8874 28.9191C24.549 28.7232 24.7875 28.3058 24.5773 27.4427L23.6773 23.905H19.566L18.7852 27.3036C18.6063 28.0844 18.6944 28.8368 19.6853 28.9475L20.1367 29.0043V29.7283H15.9658V29.0043L16.386 28.8936C17.076 28.6977 17.5274 28.1696 17.7375 27.3064L21.9681 9.1123H23.348L28.0895 27.8629C28.24 28.5046 28.541 28.8396 29.1117 28.9504L29.3814 29.0071V29.7312H23.5893L23.5864 29.7283ZM21.545 15.4638L19.8045 22.9027H23.436L21.545 15.4638Z" fill="white"/>
<path d="M42.4314 27.0251C41.2304 28.7798 39.5495 29.7281 36.8181 29.7281H31.5059V29.0041L31.8977 28.9473C32.4968 28.865 32.8886 28.6123 32.8886 27.7208V11.1138C32.8886 10.2223 32.4968 9.97243 31.8977 9.88725L31.5059 9.83047V9.10645H36.7869C39.1265 9.10645 40.5376 9.91566 41.7386 11.1394C43.6894 13.1183 44.3791 16.3779 44.3791 19.9724C44.3791 22.4227 43.8084 25.0149 42.4284 27.0223M37.3576 9.8333C36.8181 9.8333 36.3667 10.1399 36.3667 10.668V28.0558C36.3667 28.7798 36.6961 29.0297 37.5677 29.0297C38.2889 29.0297 39.0072 28.8082 39.5779 28.2489C40.5376 27.3034 40.779 24.961 40.779 19.9752C40.779 11.923 40.1174 9.8333 37.3576 9.8333Z" fill="white"/>
<path d="M55.4094 29.7275H44.0039V29.0035L44.3931 28.9467C44.9922 28.8643 45.2332 28.6117 45.2332 27.7201V11.1132C45.2332 10.2217 44.9922 9.97178 44.3931 9.88664L44.0039 9.82986V9.10584H55.4094L55.5597 14.8184L54.7505 14.8468C53.9104 11.9763 52.9504 9.83269 49.8274 9.83269C49.1971 9.83269 48.7172 10.1109 48.7172 11.0025V18.748H49.0181C50.0089 18.748 51.2099 17.7741 51.5084 16.38L51.7781 15.1251H52.6494V23.5663H51.7781L51.3889 21.9507C51.0284 20.4175 50.0689 19.472 49.0181 19.472H48.7172V27.8876C48.7172 28.6684 49.2567 29.0006 50.0376 29.0006C52.2577 29.0006 53.7002 27.3283 54.3899 25.267L54.9294 23.6514L55.7699 23.7082L55.4094 29.7275ZM50.3981 7.24325L47.9079 8.38464L47.5786 7.9389L50.4007 5.375L51.7608 6.61294" fill="white"/>
<path d="M65.5369 19.2228C64.5174 19.7509 63.2852 20.0036 61.5759 20.0036H60.9457V27.7208C60.9457 28.6123 61.3661 28.8366 62.0559 28.9473L62.4447 29.0041V29.7281H56.2324V29.0041L56.6242 28.9473C57.2261 28.865 57.4647 28.6123 57.4647 27.7208V11.1138C57.4647 10.2223 57.2261 9.97243 56.6242 9.88725L56.2324 9.83047V9.10645H62.3852C66.0481 9.10645 68.359 11.2529 68.359 14.484C68.359 16.7413 67.337 18.3029 65.5369 19.2199M63.8247 10.5289C63.4047 10.0008 62.6549 9.8333 61.8744 9.8333C61.4822 9.8333 60.9427 9.91566 60.9427 10.3074V19.2796H61.5734C62.9247 19.2796 63.4642 18.8622 63.9442 18.2773C64.6935 17.3574 64.7247 15.7702 64.7247 14.4869C64.7247 12.8429 64.5432 11.3665 63.8247 10.5289Z" fill="white"/>
<path d="M79.327 29.7275H67.9219V29.0035L68.3136 28.9467C68.9127 28.8643 69.1541 28.6117 69.1541 27.7201V11.1132C69.1541 10.2217 68.9127 9.97178 68.3136 9.88664L67.9219 9.82986V9.10584H79.327L79.4777 14.8184L78.6684 14.8468C77.8279 11.9763 76.8684 9.83269 73.745 9.83269C73.1147 9.83269 72.6347 10.1109 72.6347 11.0024V18.748H72.9357C73.9269 18.748 75.1279 17.7741 75.4259 16.38L75.6957 15.1251H76.5674V23.5663H75.6957L75.3039 21.9507C74.9434 20.4175 73.9835 19.472 72.9332 19.472H72.6322V27.8876C72.6322 28.6684 73.1717 29.0035 73.9522 29.0035C76.1727 29.0035 77.6152 27.3312 78.305 25.2698L78.8445 23.6543L79.685 23.7111L79.3244 29.7303L79.327 29.7275ZM76.803 8.38464L74.3127 7.24325L71.8229 8.38464L71.4936 7.9389L74.3157 5.375L77.1352 7.9389L76.8059 8.38464H76.803Z" fill="white"/>
<path d="M88.2059 29.4779C87.5473 29.8413 86.9141 29.9804 86.1956 29.9804C84.8156 29.9804 83.3449 29.2564 82.3541 28.0867C81.0936 26.5818 79.8926 23.7681 79.8926 19.4212C79.8926 13.5155 82.0531 10.4775 83.8531 9.41838C84.6029 8.97264 85.2927 8.8335 85.8634 8.8335C86.4341 8.8335 87.0332 8.89027 87.8141 9.33606C87.9927 9.44679 88.3536 9.55752 88.5634 9.55752C88.802 9.55752 89.1342 9.3616 89.5829 8.8335H90.2444L90.4859 15.1026L89.6142 15.185L88.3849 12.0106C87.7854 10.449 87.3029 9.50357 86.1927 9.50357C85.5936 9.50357 85.0229 9.86699 84.6624 10.7017C84.0321 12.1782 83.7029 14.9919 83.7029 19.4212C83.7029 23.8504 84.1512 26.667 84.9039 28.1434C85.2644 28.839 86.0141 29.1741 86.6131 29.1741C88.0239 29.1741 90.0941 27.9191 89.9434 23.7397H90.6645C90.6932 27.1951 89.7049 28.6431 88.2029 29.4807" fill="white"/>
<path d="M98.038 29.7281V29.0041L98.4272 28.9473C99.0262 28.865 99.2677 28.6123 99.2677 27.7208V19.6118H95.4857V27.7208C95.4857 28.6123 95.7272 28.8621 96.3262 28.9473L96.7179 29.0041V29.7281H90.7754V29.0041L91.1671 28.9473C91.7662 28.865 92.0076 28.6123 92.0076 27.7208V11.1138C92.0076 10.2223 91.7662 9.97243 91.1671 9.88725L90.7754 9.83047V9.10645H96.7179V9.83047L96.3262 9.88725C95.7272 9.96961 95.4857 10.2223 95.4857 11.1138V18.4988H99.2677V11.1138C99.2677 10.2223 99.0292 9.97243 98.4272 9.88725L98.038 9.83047V9.10645H103.981V9.83047L103.592 9.88725C102.993 9.96961 102.751 10.2223 102.751 11.1138V27.7208C102.751 28.6123 102.993 28.8621 103.592 28.9473L103.981 29.0041V29.7281H98.038Z" fill="white"/>
<path d="M115.917 29.7281H104.512V29.0041L104.901 28.9473C105.5 28.865 105.741 28.6123 105.741 27.7208V11.1138C105.741 10.2223 105.5 9.97243 104.901 9.88725L104.512 9.83047V9.10645H115.917L116.068 14.8191L115.259 14.8475C114.418 11.9769 113.458 9.8333 110.335 9.8333C109.705 9.8333 109.225 10.1116 109.225 11.0031V18.7486H109.526C110.517 18.7486 111.718 17.7748 112.019 16.3807L112.288 15.1257H113.16V23.5669H112.288L111.9 21.9514C111.539 20.4181 110.579 19.4726 109.529 19.4726H109.228V27.8883C109.228 28.6691 109.767 29.0041 110.548 29.0041C112.771 29.0041 114.211 27.3318 114.901 25.2705L115.44 23.6549L116.281 23.7117L115.92 29.7309L115.917 29.7281Z" fill="white"/>
</g>
<defs>
<clipPath id="clip0_817_21288">
<rect width="122" height="37.5709" fill="white"/>
</clipPath>
</defs>
</svg>
